<?xml version="1.0" encoding="utf-8"?>
<!-- Generator: Adobe Illustrator 24.2.1, SVG Export Plug-In . SVG Version: 6.00 Build 0)  -->
<svg version="1.1" id="Layer_1" xmlns="http://www.w3.org/2000/svg" xmlns:xlink="http://www.w3.org/1999/xlink" x="0px" y="0px"
	 viewBox="0 0 832.18 207.63" style="enable-background:new 0 0 832.18 207.63;" xml:space="preserve">
<style type="text/css">
	.st0{fill:#D6001D;}
	.st1{fill:#FFFFFF;}
</style>
<g>
	<path class="st0" d="M509.29,110.71c1.11,5.28,1.11,5.83,1.11,6.53c0,9.02-10.13,14.02-23.46,14.02
		c-30.13,0-56.51-17.63-56.51-29.3c0-1.8,0.42-3.47,0.97-4.72c-10.83,0.56-24.85,2.5-24.85,14.86c0,20.27,48.04,45.26,86.08,45.26
		c29.16,0,36.52-13.19,36.52-23.6C529.15,125.57,522.07,116.27,509.29,110.71 M488.33,118.07c8.05,0,19.71-1.66,19.71-11.25
		c0-0.75-0.02-1.48-0.2-2.2l-4.8-20.84c-1.11-4.58-2.08-6.66-10.14-10.69c-6.25-3.2-19.85-8.47-23.88-8.47
		c-3.75,0-4.86,4.86-9.3,4.86c-4.3,0-7.5-3.61-11.52-3.61c-3.89,0-6.39,2.64-8.33,8.06c0,0-5.42,15.27-6.11,17.49
		c-0.14,0.42-0.14,0.89-0.14,1.25C433.62,98.6,457,118.07,488.33,118.07"/>
	<path d="M509.29,110.71c1.11,5.28,1.11,5.83,1.11,6.53c0,9.02-10.14,14.02-23.47,14.02c-30.13,0-56.51-17.63-56.51-29.3
		c0-1.81,0.42-3.47,0.97-4.72l2.36-5.83c-0.14,0.42-0.14,0.89-0.14,1.25c0,5.93,23.37,25.41,54.7,25.41
		c8.06,0,19.72-1.67,19.72-11.25c0-0.75-0.02-1.48-0.2-2.2L509.29,110.71z"/>
	<path class="st1" d="M551.8,134.97h11.65V117.7h8.87l8.94,17.27h13.01l-10.43-18.96c5.62-2.44,8.94-7.52,8.94-13.35
		c0-8.54-6.71-15.1-16.73-15.1H551.8V134.97z M574.96,97.52c3.86,0,6.03,2.44,6.03,5.35c0,2.91-2.17,5.35-6.03,5.35h-11.52v-10.7
		H574.96z M593.86,117.09c0,10.43,8.54,18.56,19.51,18.56c6.03,0,10.43-1.63,14.97-5.42l-7.25-6.43c-1.69,1.76-4.2,2.71-7.18,2.71
		c-4.06,0-7.38-2.23-8.81-5.69h25.54v-2.71c0-11.38-7.65-19.58-18.09-19.58C602.05,98.53,593.86,106.66,593.86,117.09
		 M612.35,107.47c3.45,0,6.36,2.23,7.52,5.69H604.9C605.98,109.57,608.69,107.47,612.35,107.47 M662.07,134.97h10.84V85.19
		l-10.98,2.37v13.48c-2.71-1.56-5.83-2.37-9.14-2.37c-10.43,0-18.63,8.06-18.63,18.36c0,10.29,8.06,18.42,18.29,18.42
		c3.52,0,6.84-1.08,9.62-3.12V134.97z M644.93,117.03c0-5.15,4.06-9.08,9.42-9.08c2.98,0,5.69,1.02,7.58,2.78v12.53
		c-1.96,1.9-4.54,2.85-7.58,2.85C649.06,126.1,644.93,122.17,644.93,117.03 M689.32,134.97h11.65v-18.56h19.51v18.56h11.65V87.56
		h-11.65v18.22h-19.51V87.56h-11.65V134.97z M748.86,135.58c3.86,0,6.98-0.81,9.89-2.78v2.17h10.84v-22.96
		c0-8.74-5.89-13.55-15.71-13.55c-5.49,0-10.9,1.29-16.73,3.93l3.93,8.06c4.2-1.76,7.72-2.85,10.84-2.85c4.54,0,6.84,1.76,6.84,5.35
		v1.76c-2.58-0.67-5.28-1.02-8.13-1.02c-9.21,0-14.77,3.86-14.77,10.77C735.86,130.78,740.87,135.58,748.86,135.58 M745.51,124.27
		c0-2.37,2.37-3.52,5.96-3.52c2.37,0,4.54,0.34,6.5,0.81v4.61c-2.03,1.15-4.4,1.69-6.84,1.69
		C747.61,127.86,745.51,126.51,745.51,124.27 M779.61,124.07c0,7.65,4.61,11.38,13,11.38c2.04,0,5.56-0.48,7.65-1.08v-8.88
		c-1.83,0.54-3.18,0.75-4.94,0.75c-3.45,0-4.74-1.08-4.74-4.33v-13.61h10.02v-9.15h-10.02V87.56l-10.98,2.37v9.21h-7.25v9.15h7.25
		V124.07z"/>
	<rect x="346.62" y="53.32" class="st1" width="1.97" height="115.93"/>
	<path class="st1" d="M236.27,107.74l-2.05-5.91h-36.54v5.91h19.5v-5.61l1.99,5.61H236.27z M221.31,64.62h-36.63v5.91h38.67
		L221.31,64.62z M225.62,77.02h-40.93v5.91h42.98L225.62,77.02z M245.68,82.93h42.98v-5.91h-40.93L245.68,82.93z M197.68,95.34
		h34.29l-2.05-5.91h-32.24V95.34z M223.54,120.15h26.26l2.09-5.91h-30.43L223.54,120.15z M227.92,132.55h17.5l2.09-5.91h-21.67
		L227.92,132.55z M232.3,144.96h8.74l2.09-5.91h-12.91L232.3,144.96z M236.67,157.33l2.07-5.88h-4.15L236.67,157.33z M252.03,64.62
		l-2.05,5.91h38.67v-5.91H252.03z M275.66,89.43h-32.24l-2.05,5.91h34.29V89.43z M256.16,107.74h19.5v-5.91h-36.54l-2.05,5.91h17.11
		l1.99-5.63V107.74z M275.66,114.24h-19.5v5.91h19.5V114.24z M256.16,132.55h19.5v-5.91h-19.5V132.55z M256.16,144.96h32.49v-5.91
		h-32.49V144.96z M256.16,157.36h32.49v-5.91h-32.49V157.36z M197.68,120.15h19.5v-5.91h-19.5V120.15z M197.68,132.55h19.5v-5.91
		h-19.5V132.55z M184.69,144.96h32.49v-5.91h-32.49V144.96z M184.69,157.36h32.49v-5.91h-32.49V157.36z M170.62,70.53
		c-4.33-3.68-9.94-5.91-16.06-5.91h-47.85v5.91H170.62z M171.27,114.24h-51.56v5.91h56.33
		C174.76,117.94,173.15,115.95,171.27,114.24 M157.51,126.64v5.91h21.86c0-2.04-0.26-4.01-0.72-5.91H157.51z M157.51,95.34h21.13
		c0.46-1.9,0.72-3.87,0.72-5.91h-21.86V95.34z M119.71,95.34h19.5v-5.91h-19.5V95.34z M178.5,82.93c-0.56-2.09-1.4-4.07-2.46-5.91
		h-69.33v5.91H178.5z M119.71,101.84L119.71,101.84v5.91h51.56c1.88-1.71,3.49-3.7,4.77-5.91H119.71z M119.71,132.55h19.5v-5.91
		h-19.5V132.55z M106.71,139.05v5.91h69.33c1.06-1.83,1.9-3.81,2.46-5.91H106.71z M106.71,151.45v5.91h47.85
		c6.13,0,11.73-2.23,16.06-5.91H106.71z M54.73,70.53h45.49v-5.91H54.73V70.53z M54.73,82.93h45.49v-5.91H54.73V82.93z M87.22,89.43
		h-19.5v5.91h19.5V89.43z M67.72,107.74h19.5v-5.91h-19.5V107.74z M67.72,120.15h19.5v-5.91h-19.5V120.15z M67.72,132.55h19.5v-5.91
		h-19.5V132.55z M54.73,144.96h45.49v-5.91H54.73V144.96z M54.73,151.45h45.49v5.91H54.73V151.45z M300.81,152.42
		c0.4,0,0.62-0.18,0.62-0.55v-0.37c0-0.38-0.22-0.55-0.62-0.55h-0.94v1.47H300.81z M299.87,155.15h-1.27v-5.18h2.36
		c1.16,0,1.76,0.7,1.76,1.64c0,0.82-0.38,1.34-0.94,1.56l1.17,1.99h-1.39l-0.97-1.79h-0.72V155.15z M304.41,152.84v-0.64
		c0-2.09-1.64-3.72-3.8-3.72c-2.16,0-3.79,1.64-3.79,3.72v0.64c0,2.08,1.64,3.72,3.79,3.72
		C302.78,156.56,304.41,154.92,304.41,152.84 M295.66,152.52c0-2.9,2.21-5.11,4.96-5.11c2.76,0,4.97,2.21,4.97,5.11
		c0,2.9-2.21,5.11-4.97,5.11C297.86,157.63,295.66,155.42,295.66,152.52"/>
</g>
</svg>
